<svg width="640" height="480" viewBox="0 0 640 480" fill="none" xmlns="http://www.w3.org/2000/svg">
  <rect width="640" height="480" rx="36" fill="#121212"/>
  <rect x="38" y="36" width="564" height="408" rx="28" fill="#1B1B1B" stroke="#F5BF1F" stroke-opacity="0.2"/>
  <circle cx="200" cy="175" r="74" fill="#F5BF1F"/>
  <rect x="132" y="240" width="136" height="158" rx="18" fill="#F7D86D"/>
  <path d="M318 120H526C538.703 120 549 130.297 549 143V332C549 344.703 538.703 355 526 355H318V120Z" fill="#F5BF1F"/>
  <rect x="352" y="150" width="176" height="18" rx="9" fill="#111111"/>
  <rect x="352" y="188" width="144" height="12" rx="6" fill="#111111" fill-opacity="0.75"/>
  <rect x="352" y="218" width="118" height="12" rx="6" fill="#111111" fill-opacity="0.5"/>
  <path d="M110 372C145 332 187 305 248 305C309 305 350 332 387 372" stroke="#F5BF1F" stroke-width="12" stroke-linecap="round"/>
</svg>